<?xml version="1.0" standalone="no"?>
<!DOCTYPE svg PUBLIC "-//W3C//DTD SVG 20010904//EN"
 "http://www.w3.org/TR/2001/REC-SVG-20010904/DTD/svg10.dtd">
<svg version="1.0" xmlns="http://www.w3.org/2000/svg"
 width="512.000000pt" height="512.000000pt" viewBox="0 0 512.000000 512.000000"
 preserveAspectRatio="xMidYMid meet">
<metadata>
Created by potrace 1.14, written by Peter Selinger 2001-2017
</metadata>
<g transform="translate(0.000000,512.000000) scale(0.100000,-0.100000)"
fill="#000000" stroke="none">
<path d="M2379 5116 c-2 -2 -40 -6 -83 -10 -44 -4 -82 -8 -85 -10 -3 -2 -31
-7 -61 -11 -30 -3 -75 -11 -100 -17 -25 -5 -56 -12 -70 -14 -52 -10 -236 -66
-326 -100 -412 -154 -826 -454 -1084 -784 -19 -25 -37 -47 -40 -50 -7 -7 -45
-61 -105 -150 -222 -327 -370 -741 -413 -1150 -9 -91 -9 -417 1 -523 58 -643
400 -1285 907 -1703 208 -171 386 -280 660 -402 115 -51 409 -136 545 -157
162 -26 271 -32 480 -30 257 3 379 19 612 80 1023 268 1787 1161 1890 2210 15
156 9 505 -11 620 -3 17 -8 44 -10 60 -3 17 -9 53 -15 80 -6 28 -13 61 -15 75
-50 250 -198 598 -358 837 -47 71 -57 97 -39 107 20 13 53 150 53 224 3 250
-146 457 -382 531 -141 44 -304 27 -426 -44 -35 -21 -44 -22 -60 -11 -31 22
-164 90 -250 128 -145 66 -418 152 -554 174 -70 11 -85 14 -195 30 -44 6 -460
15 -466 10z"/>
</g>
</svg>
